<svg width="10" height="12" viewBox="0 0 10 12" fill="none" xmlns="http://www.w3.org/2000/svg">
<path d="M0.066667 6.31667C0.106329 6.41897 0.1658 6.51242 0.241668 6.59167L4.40833 10.7583C4.48603 10.836 4.57827 10.8977 4.67979 10.9397C4.78131 10.9818 4.89012 11.0034 5 11.0034C5.22192 11.0034 5.43475 10.9153 5.59167 10.7583C5.66937 10.6806 5.731 10.5884 5.77305 10.4869C5.8151 10.3854 5.83674 10.2766 5.83674 10.1667C5.83674 9.94476 5.74859 9.73193 5.59167 9.57501L2.84167 6.83334L9.16667 6.83334C9.38768 6.83334 9.59964 6.74554 9.75592 6.58926C9.9122 6.43298 10 6.22102 10 6.00001C10 5.779 9.9122 5.56703 9.75592 5.41075C9.59964 5.25447 9.38768 5.16668 9.16667 5.16668L2.84167 5.16667L5.59167 2.42501C5.66977 2.34754 5.73177 2.25537 5.77408 2.15382C5.81638 2.05227 5.83817 1.94335 5.83817 1.83334C5.83817 1.72333 5.81638 1.61441 5.77408 1.51286C5.73177 1.41131 5.66977 1.31915 5.59167 1.24168C5.5142 1.16357 5.42203 1.10157 5.32048 1.05927C5.21893 1.01696 5.11001 0.995177 5 0.995177C4.88999 0.995177 4.78107 1.01696 4.67952 1.05927C4.57797 1.10157 4.4858 1.16357 4.40833 1.24168L0.241668 5.40834C0.165801 5.48759 0.106329 5.58105 0.0666671 5.68334C-0.0166812 5.88623 -0.0166812 6.11379 0.066667 6.31667Z" fill="#989AA3"/>
</svg>
