<svg width="14" height="18" viewBox="0 0 14 18" fill="none" xmlns="http://www.w3.org/2000/svg">
<path d="M13.1494 7.93307L1.90186 1.05929C1.7124 0.94344 1.49551 0.880158 1.27348 0.875956C1.05145 0.871754 0.832315 0.926784 0.638615 1.03538C0.444915 1.14398 0.283647 1.30223 0.171404 1.49384C0.0591612 1.68545 -2.3921e-06 1.90351 0 2.12557V15.8744C0.000180687 16.0963 0.0594584 16.3143 0.171744 16.5058C0.284029 16.6973 0.445273 16.8555 0.638911 16.964C0.832548 17.0726 1.0516 17.1276 1.27355 17.1235C1.49551 17.1194 1.71237 17.0563 1.90186 16.9406L13.1494 10.0669C13.3321 9.95513 13.4831 9.79834 13.5878 9.61153C13.6926 9.42472 13.7476 9.21414 13.7476 8.99997C13.7476 8.7858 13.6926 8.57521 13.5878 8.3884C13.4831 8.20159 13.3321 8.0448 13.1494 7.93307Z" fill="#A8ABBB"/>
</svg>
