<svg width="48" height="48" viewBox="0 0 48 48" fill="none" xmlns="http://www.w3.org/2000/svg">
<circle cx="24" cy="24" r="23.5" fill="#F9F9F9" stroke="#E0E3EB"/>
<g clip-path="url(#clip0)">
<path d="M30.1006 25.3128L27.5788 27.8347C27.3355 28.078 26.941 28.078 26.6977 27.8347L26.6673 27.8043C26.424 27.561 26.424 27.1665 26.6673 26.9232L30.1006 23.4898C30.4782 23.1123 30.4782 22.5001 30.1006 22.1226C29.7231 21.745 29.1109 21.745 28.7334 22.1226L25.3001 25.5559C25.0567 25.7992 24.6622 25.7992 24.4189 25.5559L24.3886 25.5255C24.1452 25.2822 24.1452 24.8877 24.3886 24.6444L28.7334 20.2996C29.1109 19.922 29.1109 19.3099 28.7334 18.9323C28.3558 18.5548 27.7437 18.5548 27.3661 18.9323L23.0213 23.2771C22.778 23.5205 22.3835 23.5205 22.1402 23.2771C21.8969 23.0338 21.8968 22.6393 22.1402 22.396L25.5735 18.9627C25.9511 18.5851 25.9511 17.973 25.5735 17.5954C25.1959 17.2179 24.5838 17.2179 24.2062 17.5954C23.4444 18.3574 17.2552 24.5464 16.9978 24.8039C16.8118 23.2847 16.5779 20.9847 16.5777 20.9832V20.9833C16.5777 20.6209 16.426 20.2586 16.1224 19.9998C15.3142 19.311 14.0267 19.8556 14 20.9515C14.3772 27.3637 13.2525 30.7965 16.2002 33.7442C18.2138 35.7579 21.9343 36.2137 23.948 34.2L31.4679 26.6801C31.8454 26.3025 31.8454 25.6904 31.4679 25.3128C31.0903 24.9353 30.4782 24.9353 30.1006 25.3128Z" fill="#A8ABBB"/>
<path d="M15.2883 18.4047C15.8254 18.4047 16.347 18.5718 16.7797 18.8782C16.6779 17.9376 16.5997 17.171 16.5997 17.171C16.5997 17.1706 16.5997 17.1706 16.5997 17.1702C16.5992 16.8084 16.4476 16.4466 16.1442 16.1879C15.3358 15.4986 14.0484 16.0439 14.022 17.1397C14.0538 17.6806 14.0748 18.2001 14.0886 18.6999C14.4555 18.5074 14.8676 18.4047 15.2883 18.4047Z" fill="#A8ABBB"/>
<path d="M17.9795 21.9975L23.2943 16.6822C23.6797 16.2972 24.1794 16.0687 24.7174 16.0283L25.5952 15.1504C25.9725 14.7727 25.9725 14.1608 25.5952 13.7831C25.2163 13.405 24.6049 13.4062 24.228 13.7831C23.614 14.3967 19.4812 18.5299 17.7607 20.2504C17.823 20.4613 17.8587 20.6809 17.8652 20.9052C17.8802 21.0487 17.9227 21.4638 17.9795 21.9975Z" fill="#A8ABBB"/>
<path d="M27.0416 17.5941C27.3007 17.4643 27.5834 17.3857 27.8778 17.3642L28.7561 16.4859C29.1333 16.1087 29.1333 15.4964 28.7561 15.1187C28.3788 14.7423 27.7663 14.7411 27.3888 15.1187L26.1221 16.3854C26.5412 16.6587 26.88 17.0816 27.0416 17.5941Z" fill="#A8ABBB"/>
<path d="M35.3555 17.4531H34.0664C33.7105 17.4531 33.4219 17.7417 33.4219 18.0977C33.4219 18.4536 33.7105 18.7422 34.0664 18.7422H35.3555C35.7114 18.7422 36 18.4536 36 18.0977C36 17.7417 35.7114 17.4531 35.3555 17.4531Z" fill="#A8ABBB"/>
<path d="M34.4787 13.6896C34.227 13.4379 33.8189 13.4379 33.5672 13.6896L32.2781 14.9787C32.0264 15.2304 32.0264 15.6385 32.2781 15.8902C32.5298 16.1419 32.938 16.1419 33.1896 15.8902L34.4787 14.6011C34.7304 14.3495 34.7304 13.9413 34.4787 13.6896Z" fill="#A8ABBB"/>
</g>
<defs>
<clipPath id="clip0">
<rect width="22" height="22" fill="white" transform="translate(14 13.5)"/>
</clipPath>
</defs>
</svg>
