<svg width="22" height="22" viewBox="0 0 22 22" fill="none" xmlns="http://www.w3.org/2000/svg">
<path d="M16.1006 11.8128L13.5788 14.3347C13.3355 14.578 12.941 14.578 12.6977 14.3347L12.6673 14.3043C12.424 14.061 12.424 13.6665 12.6673 13.4232L16.1006 9.98984C16.4782 9.61227 16.4782 9.00014 16.1006 8.62257C15.7231 8.24501 15.1109 8.24501 14.7334 8.62257L11.3001 12.0559C11.0567 12.2992 10.6622 12.2992 10.4189 12.0559L10.3886 12.0255C10.1452 11.7822 10.1452 11.3877 10.3886 11.1444L14.7334 6.79958C15.1109 6.42202 15.1109 5.80988 14.7334 5.43232C14.3558 5.05475 13.7437 5.05475 13.3661 5.43232L9.02129 9.77715C8.77796 10.0205 8.38346 10.0205 8.14017 9.77715C7.89688 9.53381 7.89684 9.13932 8.14017 8.89603L11.5735 5.4627C11.9511 5.08513 11.9511 4.473 11.5735 4.09543C11.1959 3.71786 10.5838 3.71786 10.2062 4.09543C9.44436 4.85735 3.25523 11.0464 2.9978 11.3039C2.81183 9.78467 2.57787 7.48472 2.57774 7.48322V7.48326C2.57774 7.12095 2.42597 6.75859 2.12236 6.49983C1.31416 5.81104 0.0267266 6.35563 0 7.45155C0.37718 13.8637 -0.747484 17.2965 2.20017 20.2442C4.21382 22.2579 7.93431 22.7137 9.94795 20.7L17.4679 13.1801C17.8454 12.8025 17.8454 12.1904 17.4679 11.8128C17.0903 11.4353 16.4782 11.4353 16.1006 11.8128Z" fill="#A8ABBB"/>
<path d="M1.28826 4.90466C1.82537 4.90466 2.34701 5.07181 2.77971 5.37818C2.67787 4.43759 2.59967 3.67103 2.59967 3.67103C2.59967 3.6706 2.59967 3.6706 2.59967 3.67017C2.59924 3.30838 2.44756 2.94658 2.1442 2.68791C1.33583 1.9986 0.0484414 2.54388 0.0219727 3.63966C0.0537695 4.18064 0.0748242 4.70013 0.0885742 5.19986C0.455527 5.00736 0.867598 4.90466 1.28826 4.90466Z" fill="#A8ABBB"/>
<path d="M3.97945 8.49748L9.29427 3.18224C9.6797 2.79724 10.1794 2.56865 10.7174 2.52826L11.5952 1.65041C11.9725 1.27271 11.9725 0.660838 11.5952 0.283143C11.2163 -0.0949823 10.6049 -0.0937791 10.228 0.283143C9.61396 0.896737 5.48121 5.0299 3.76074 6.75037C3.82305 6.96135 3.85871 7.18092 3.86516 7.40521C3.8802 7.54873 3.92273 7.96381 3.97945 8.49748Z" fill="#A8ABBB"/>
<path d="M13.0416 4.09409C13.3007 3.96433 13.5834 3.88569 13.8778 3.86421L14.7561 2.98593C15.1333 2.60866 15.1333 1.99636 14.7561 1.61866C14.3788 1.24226 13.7663 1.24114 13.3888 1.61866L12.1221 2.88538C12.5412 3.15875 12.88 3.5816 13.0416 4.09409Z" fill="#A8ABBB"/>
<path d="M21.3555 3.95312H20.0664C19.7105 3.95312 19.4219 4.2417 19.4219 4.59766C19.4219 4.95361 19.7105 5.24219 20.0664 5.24219H21.3555C21.7114 5.24219 22 4.95361 22 4.59766C22 4.2417 21.7114 3.95312 21.3555 3.95312Z" fill="#A8ABBB"/>
<path d="M20.4787 0.189638C20.227 -0.0620732 19.8189 -0.0620732 19.5672 0.189638L18.2781 1.4787C18.0264 1.73041 18.0264 2.13849 18.2781 2.3902C18.5298 2.64191 18.938 2.64191 19.1896 2.3902L20.4787 1.10113C20.7304 0.849466 20.7304 0.441349 20.4787 0.189638Z" fill="#A8ABBB"/>
</svg>
