<svg width="18" height="18" viewBox="0 0 18 18" fill="none" xmlns="http://www.w3.org/2000/svg">
<path d="M5.66704 8.16797C5.50223 8.16797 5.34111 8.21684 5.20407 8.30841C5.06703 8.39998 4.96022 8.53013 4.89714 8.6824C4.83407 8.83467 4.81757 9.00223 4.84972 9.16388C4.88188 9.32553 4.96124 9.47401 5.07779 9.59056C5.19433 9.7071 5.34282 9.78647 5.50447 9.81862C5.66612 9.85078 5.83367 9.83427 5.98595 9.7712C6.13822 9.70813 6.26837 9.60132 6.35993 9.46428C6.4515 9.32724 6.50038 9.16612 6.50038 9.0013C6.50038 8.78029 6.41258 8.56833 6.2563 8.41205C6.10002 8.25577 5.88806 8.16797 5.66704 8.16797ZM9.00038 8.16797C8.83556 8.16797 8.67444 8.21684 8.5374 8.30841C8.40036 8.39998 8.29355 8.53013 8.23048 8.6824C8.1674 8.83467 8.1509 9.00223 8.18306 9.16388C8.21521 9.32553 8.29458 9.47401 8.41112 9.59056C8.52767 9.7071 8.67615 9.78647 8.8378 9.81862C8.99945 9.85078 9.16701 9.83427 9.31928 9.7712C9.47155 9.70813 9.6017 9.60132 9.69327 9.46428C9.78484 9.32724 9.83371 9.16612 9.83371 9.0013C9.83371 8.78029 9.74591 8.56833 9.58963 8.41205C9.43335 8.25577 9.22139 8.16797 9.00038 8.16797ZM12.3337 8.16797C12.1689 8.16797 12.0078 8.21684 11.8707 8.30841C11.7337 8.39998 11.6269 8.53013 11.5638 8.6824C11.5007 8.83467 11.4842 9.00223 11.5164 9.16388C11.5485 9.32553 11.6279 9.47401 11.7445 9.59056C11.861 9.7071 12.0095 9.78647 12.1711 9.81862C12.3328 9.85078 12.5003 9.83427 12.6526 9.7712C12.8049 9.70813 12.935 9.60132 13.0266 9.46428C13.1182 9.32724 13.167 9.16612 13.167 9.0013C13.167 8.78029 13.0792 8.56833 12.923 8.41205C12.7667 8.25577 12.5547 8.16797 12.3337 8.16797ZM9.00038 0.667969C7.90603 0.667969 6.82239 0.883517 5.81135 1.30231C4.8003 1.7211 3.88164 2.33492 3.10782 3.10875C1.54502 4.67155 0.667043 6.79116 0.667043 9.0013C0.659758 10.9256 1.32604 12.7917 2.55038 14.2763L0.88371 15.943C0.768079 16.0602 0.689748 16.209 0.658603 16.3706C0.627458 16.5323 0.644894 16.6995 0.70871 16.8513C0.777925 17.0012 0.89013 17.1272 1.03108 17.2133C1.17203 17.2993 1.33538 17.3416 1.50038 17.3346H9.00038C11.2105 17.3346 13.3301 16.4567 14.8929 14.8939C16.4557 13.3311 17.3337 11.2114 17.3337 9.0013C17.3337 6.79116 16.4557 4.67155 14.8929 3.10875C13.3301 1.54594 11.2105 0.667969 9.00038 0.667969ZM9.00038 15.668H3.50871L4.28371 14.893C4.36245 14.8158 4.42509 14.7238 4.46801 14.6222C4.51092 14.5206 4.53325 14.4116 4.53371 14.3013C4.53058 14.0815 4.44072 13.8718 4.28371 13.718C3.19253 12.628 2.51302 11.1934 2.36095 9.65863C2.20888 8.12384 2.59366 6.58381 3.44973 5.3009C4.3058 4.018 5.5802 3.0716 7.05581 2.62295C8.53141 2.17429 10.1169 2.25114 11.5422 2.8404C12.9675 3.42965 14.1444 4.49486 14.8724 5.85454C15.6004 7.21422 15.8344 8.78426 15.5346 10.2971C15.2349 11.81 14.4198 13.1722 13.2283 14.1515C12.0368 15.1308 10.5427 15.6668 9.00038 15.668Z" fill="#A8ABBB"/>
</svg>
