<svg width="23" height="24" viewBox="0 0 23 24" fill="none" xmlns="http://www.w3.org/2000/svg">
<path d="M15 10.668C15 9.34189 14.4732 8.07012 13.5355 7.13243C12.5979 6.19475 11.3261 5.66797 10 5.66797C8.67392 5.66797 7.40215 6.19475 6.46447 7.13243C5.52678 8.07012 5 9.34189 5 10.668C5 16.5013 2.5 18.168 2.5 18.168H17.5C17.5 18.168 15 16.5013 15 10.668Z" stroke="#A8ABBB" stroke-width="2" stroke-linecap="round" stroke-linejoin="round"/>
<path d="M11.4414 21.5C11.2949 21.7526 11.0846 21.9622 10.8316 22.1079C10.5786 22.2537 10.2918 22.3304 9.99977 22.3304C9.70779 22.3304 9.42093 22.2537 9.16792 22.1079C8.9149 21.9622 8.70461 21.7526 8.55811 21.5" stroke="#A8ABBB" stroke-width="2" stroke-linecap="round" stroke-linejoin="round"/>
<circle cx="17" cy="6" r="5" fill="#FF5F1B" stroke="white" stroke-width="2"/>
</svg>
